<svg xmlns="http://www.w3.org/2000/svg" width="720" height="420" viewBox="0 0 720 420" font-family="Helvetica, Arial, sans-serif" font-size="15">
  <!-- Background -->
  <rect x="0" y="0" width="720" height="420" fill="white"/>

  <defs>
    <marker id="arrow" viewBox="0 0 10 10" refX="9" refY="5" markerWidth="7" markerHeight="7" orient="auto-start-reverse">
      <path d="M 0 0 L 10 5 L 0 10 z" fill="#444"/>
    </marker>
    <pattern id="hatch" patternUnits="userSpaceOnUse" width="8" height="8" patternTransform="rotate(45)">
      <line x1="0" y1="0" x2="0" y2="8" stroke="#b0855a" stroke-width="1.5"/>
    </pattern>
    <pattern id="hatch-el" patternUnits="userSpaceOnUse" width="8" height="8" patternTransform="rotate(-45)">
      <line x1="0" y1="0" x2="0" y2="8" stroke="#7c9fc4" stroke-width="1.5"/>
    </pattern>
  </defs>

  <!-- Elastic half-space (top). Its lower boundary is the deformed surface u(x). -->
  <path d="M 40 40 L 680 40 L 680 122
           C 640 122 620 132 590 138
           C 560 144 545 118 520 112
           C 495 106 480 128 450 136
           C 420 144 400 146 370 142
           C 340 138 330 112 305 108
           C 280 104 265 132 235 140
           C 205 148 175 146 145 140
           C 115 134 95 124 40 122
           Z"
        fill="url(#hatch-el)" stroke="none" opacity="0.55"/>
  <!-- Deformed elastic surface u(x) -->
  <path d="M 680 122
           C 640 122 620 132 590 138
           C 560 144 545 118 520 112
           C 495 106 480 128 450 136
           C 420 144 400 146 370 142
           C 340 138 330 112 305 108
           C 280 104 265 132 235 140
           C 205 148 175 146 145 140
           C 115 134 95 124 40 122"
        fill="none" stroke="#2b5c8a" stroke-width="2.5"/>
  <text x="52" y="66" fill="#2b5c8a" font-weight="bold">elastic half-space</text>
  <text x="52" y="86" fill="#2b5c8a">deformed surface at z = u(x)</text>

  <!-- Undeformed elastic surface u = 0 (dashed) -->
  <line x1="40" y1="150" x2="680" y2="150" stroke="#2b5c8a" stroke-width="1.5" stroke-dasharray="7 5"/>
  <text x="420" y="168" fill="#2b5c8a">undeformed elastic surface (u = 0)</text>

  <!-- Mean plane of the rigid surface z = d (dashed) -->
  <line x1="40" y1="230" x2="680" y2="230" stroke="#8a5a2b" stroke-width="1.5" stroke-dasharray="7 5"/>
  <text x="420" y="252" fill="#8a5a2b">mean plane of rigid surface (z = d)</text>

  <!-- Rigid rough body (bottom), top boundary z = h(x) + d -->
  <path d="M 40 250 L 75 262 L 105 238 L 145 205 L 175 252 L 205 270 L 235 236
           L 265 210 L 305 108 L 330 226 L 370 258 L 400 240 L 450 218
           L 480 262 L 520 112 L 545 232 L 590 246 L 620 224 L 655 258 L 680 244
           L 680 385 L 40 385 Z"
        fill="url(#hatch)" stroke="none" opacity="0.55"/>
  <path d="M 40 250 L 75 262 L 105 238 L 145 205 L 175 252 L 205 270 L 235 236
           L 265 210 L 305 108 L 330 226 L 370 258 L 400 240 L 450 218
           L 480 262 L 520 112 L 545 232 L 590 246 L 620 224 L 655 258 L 680 244"
        fill="none" stroke="#8a5a2b" stroke-width="2.5"/>
  <text x="52" y="330" fill="#8a5a2b" font-weight="bold">rigid rough body</text>
  <text x="52" y="350" fill="#8a5a2b">surface at z = h(x) + d,  mean(h) = 0</text>

  <!-- Offset d: arrow from u=0 plane to rigid mean plane -->
  <line x1="90" y1="150" x2="90" y2="230" stroke="#444" stroke-width="1.5" marker-start="url(#arrow)" marker-end="url(#arrow)"/>
  <text x="98" y="196" fill="#444" font-style="italic">−d</text>

  <!-- Height h(x): from mean plane up to a peak -->
  <line x1="305" y1="230" x2="305" y2="112" stroke="#444" stroke-width="1.5" marker-start="url(#arrow)" marker-end="url(#arrow)"/>
  <text x="313" y="180" fill="#444" font-style="italic">h(x)</text>

  <!-- Gap g(x): between elastic surface and rigid surface in a non-contact region -->
  <line x1="450" y1="136" x2="450" y2="218" stroke="#444" stroke-width="1.5" marker-start="url(#arrow)" marker-end="url(#arrow)"/>
  <text x="458" y="182" fill="#444" font-style="italic">g(x) = u − h − d</text>

  <!-- Contact points annotation -->
  <circle cx="305" cy="108" r="5" fill="#c23b22"/>
  <circle cx="520" cy="112" r="5" fill="#c23b22"/>
  <text x="540" y="98" fill="#c23b22">contact: g = 0</text>

  <!-- z axis -->
  <line x1="660" y1="330" x2="660" y2="280" stroke="#444" stroke-width="1.5" marker-end="url(#arrow)"/>
  <text x="668" y="300" fill="#444" font-style="italic">z</text>

  <!-- Caption -->
  <text x="40" y="408" fill="#444" font-size="13">Increasing the offset d presses the bodies together; first contact occurs at d = −max(h). Peaks are positive and point towards the opposing body.</text>
</svg>
